<svg width="800" height="600" xmlns="http://www.w3.org/2000/svg">
 <!-- Created with Method Draw - http://github.com/duopixel/Method-Draw/ -->

 <g>
  <title>background</title>
  <rect fill="#fff" id="canvas_background" height="602" width="802" y="-1" x="-1"/>
  <g display="none" overflow="visible" y="0" x="0" height="100%" width="100%" id="canvasGrid">
   <rect fill="url(#gridpattern)" stroke-width="0" y="0" x="0" height="100%" width="100%"/>
  </g>
 </g>
 <g>
  <title>Layer 1</title>
  <rect id="svg_7" height="74" width="72" y="263" x="364.5" stroke-width="1.5" stroke="#000" fill="#7AD6CA"/>
  <g id="svg_6">
   <path id="svg_4" d="m380.57956,277.49123c-0.13807,0.24489 -2.7496,4.93954 -3.20714,10.77132c0.4777,-5.81028 3.07546,-10.47301 3.21352,-10.71757l1.58795,-2.8057l-0.01579,-0.04199l-1.57854,2.79395zm0,0"/>
   <path id="svg_5" d="m425.67137,294.77224c-0.45821,-3.404 -3.28541,-6.02561 -6.722,-6.23389c-2.18121,-0.13202 -4.27977,0.7152 -5.75922,2.32431c-0.03662,0.03964 -0.08936,0.09809 -0.15755,0.17435c-1.1079,1.23287 -2.10562,2.23025 -2.99483,3.0385c-2.84434,-5.92785 -1.63162,-13.11142 0.00605,-18.31937l1.02997,-3.27567l-3.18094,1.30375c-0.27647,0.11354 -6.81169,2.84333 -10.11861,8.63278c-1.15393,2.01962 -2.09655,4.85388 -2.24369,7.99383c1.13108,0.88451 2.3139,1.60441 3.53971,2.1503c3.66233,1.63129 6.61853,1.17979 6.64809,1.17509l-0.02251,0.0037l0.58251,3.17221c-0.1552,0.02822 -3.85347,0.67321 -8.5199,-1.40487c-2.67738,-1.19189 -5.1579,-3.05228 -7.37203,-5.5281c-2.79966,-3.13055 -5.18477,-7.26251 -7.08951,-12.28133l-1.12302,-2.95855l-1.58761,2.8057c-0.13807,0.24456 -2.73616,4.90729 -3.21386,10.71757c-0.1159,1.4744 -0.09406,3.0207 0.14008,4.58681c0.35978,2.40561 1.24732,4.88714 2.56518,7.17718c1.47743,2.56618 3.46917,4.80551 5.75922,6.47576c3.41844,2.49362 7.44291,3.7574 11.96186,3.7574c1.34474,0 2.73818,-0.11623 4.14103,-0.34567l0.52036,3.18329c-1.57418,0.25732 -3.14264,0.38733 -4.66139,0.38733c-3.43558,0 -6.71494,-0.67623 -9.68425,-1.97864c-0.3749,0.30503 -0.71386,0.58083 -1.00141,0.81464l-12.80707,3.26123l-0.17872,1.02627c-0.03124,0.17771 -0.73132,4.38156 1.61483,7.55948c1.34205,1.8184 3.35193,2.91051 5.97287,3.24712l0.81967,0.10481l8.12384,-8.6835c1.77271,0.91743 3.8313,1.54865 7.08178,1.7371c0.37356,0.0215 0.74409,0.03259 1.11395,0.03259c10.05713,-0.00101 18.5431,-7.92295 19.16357,-18.14603l0.09373,-1.54193c0.13874,-2.27661 2.61489,-4.63653 4.73798,-4.5072c0.27244,0.01646 0.54287,0.06047 0.80355,0.13068l2.34111,0.63021l-0.32283,-2.39922zm0,0"/>
  </g>
 </g>
</svg>