<svg fill="#fff" height="682pt" viewBox="-39 -21 682 682.66669" width="682pt" xmlns="http://www.w3.org/2000/svg"><path d="m75.523438 58.265625c-1.605469 2.847656-31.972657 57.4375-37.292969 125.25 5.554687-67.5625 35.761719-121.78125 37.367187-124.625l18.464844-32.625-.183594-.488281zm0 0"/><path d="m599.855469 259.210938c-5.328125-39.582032-38.203125-70.066407-78.164063-72.488282-25.363281-1.535156-49.765625 8.316406-66.96875 27.027344-.425781.460938-1.039062 1.140625-1.832031 2.027344-12.882813 14.335937-24.484375 25.933594-34.824219 35.332031-33.074218-68.929687-18.972656-152.460937.070313-213.019531l11.976562-38.089844-36.988281 15.160156c-3.214844 1.320313-79.207031 33.0625-117.660156 100.382813-13.417969 23.484375-24.378906 56.441406-26.089844 92.953125 13.152344 10.285156 26.90625 18.65625 41.160156 25.003906 42.585938 18.96875 76.960938 13.71875 77.304688 13.664062l-.261719.042969 6.773437 36.886719c-1.804687.328125-44.808593 7.828125-99.070312-16.335938-31.132812-13.859374-59.976562-35.492187-85.722656-64.28125-32.554688-36.402343-60.289063-84.449218-82.4375-142.808593l-13.058594-34.402344-18.460938 32.625c-1.605468 2.84375-31.816406 57.0625-37.371093 124.625-1.347657 17.144531-1.09375 35.125 1.628906 53.335937 4.183594 27.972657 14.503906 56.828126 29.828125 83.457032 17.179688 29.839844 40.339844 55.878906 66.96875 75.300781 39.75 28.996094 86.546875 43.691406 139.09375 43.691406 15.636719 0 31.839844-1.351562 48.152344-4.019531l6.050781 37.015625c-18.304687 2.992187-36.542969 4.503906-54.203125 4.503906-39.949219 0-78.082031-7.863281-112.609375-23.007812-4.359375 3.546875-8.300781 6.753906-11.644531 9.472656l-148.921875 37.921875-2.078125 11.933594c-.363282 2.066406-8.503906 50.949218 18.777344 87.902344 15.605468 21.144531 38.976562 33.84375 69.453124 37.757812l9.53125 1.21875 94.464844-100.972656c20.613282 10.667968 44.550782 18.007812 82.347656 20.199218 4.34375.25 8.652344.378907 12.953126.378907 116.945312-.011719 215.621093-92.128907 222.835937-211.003907l1.089844-17.929687c1.613281-26.472656 30.40625-53.914063 55.09375-52.410156 3.167969.191406 6.3125.703125 9.34375 1.519531l27.222656 7.328125zm0 0"/></svg>